<svg xmlns="http://www.w3.org/2000/svg" width="390" height="176" viewBox="0 0 390 176" fill="none"><mask id="path-1-inside-1_5467_40090" fill="white"><path fill-rule="evenodd" clip-rule="evenodd" d="M310.778 0C320.758 0 329.035 18.3319 329.035 28.3111C329.035 47.0341 344.213 62.2122 362.936 62.2122C373.018 62.2122 390 69.991 390 80.0724V160.843C390 169.214 383.214 176 374.844 176h25.1565C6.78579 176 0 169.214 0 160.843V15.1565C0 6.78581 6.7858 0 15.1565 0H310.778Z"></path></mask><path fill-rule="evenodd" clip-rule="evenodd" d="M310.778 0C320.758 0 329.035 18.3319 329.035 28.3111C329.035 47.0341 344.213 62.2122 362.936 62.2122C373.018 62.2122 390 69.991 390 80.0724V160.843C390 169.214 383.214 176 374.844 176h25.1565C6.78579 176 0 169.214 0 160.843V15.1565C0 6.78581 6.7858 0 15.1565 0H310.778Z" fill="white"></path><path d="M362.936 61.2122C344.766 61.2122 330.035 46.4819 330.035 28.3111H328.035C328.035 47.5864 343.661 63.2122 362.936 63.2122V61.2122ZM389 80.0724V160.843H391V80.0724H389ZM389 160.843C389 168.662 382.662 175 374.844 175V177C383.766 177 391 169.766 391 160.843H389ZM374.844 175h25.1565V177H374.844V175ZM15.1565 175C7.33808 175 1 168.662 1 160.843H-1C-1 169.766 6.23351 177 15.1565 177V175ZM1 160.843V15.1565H-1V160.843h2ZM1 15.1565C1 7.33809 7.33808 1 15.1565 1V-1C6.23351 -1 -1 6.23352 -1 15.1565h2ZM15.1565 1H310.778V-1h25.1565V1ZM362.936 63.2122C367.77 63.2122 374.364 65.0934 379.746 68.226C385.188 71.3942 389 75.6007 389 80.0724H391C391 74.4627 386.321 69.7391 380.752 66.4975C375.122 63.2204 368.184 61.2122 362.936 61.2122V63.2122ZM330.035 28.3111C330.035 23.1073 327.898 15.86 324.518 9.91889C322.823 6.93904 320.785 4.23389 318.493 2.26216C316.202 0.291674 313.591 -1 310.778 -1V1C312.956 1 315.121 1.99982 317.189 3.77842C319.255 5.55577 321.158 8.0573 322.78 10.9078C326.034 16.6275 328.035 23.5357 328.035 28.3111H330.035Z" fill="#1F9CBD" mask="url(#path-1-inside-1_5467_40090)"></path></svg>