<svg xmlns="http://www.w3.org/2000/svg" width="391" height="333" viewBox="0 0 391 333" fill="none"><mask id="path-1-inside-1_961_702" fill="white"><path fill-rule="evenodd" clip-rule="evenodd" d="M299.505 0.00219727C311.521 0.00219727 319.633 15.3969 319.633 27.413C319.633 52.1193 339.661 72.1478 364.367 72.1478C375.988 72.1478 390.407 79.9673 390.407 91.5875V312.633C390.407 323.679 381.453 332.633 370.407 332.633H20.4069C9.36123 332.633 0.406921 323.679 0.406921 312.633V20.0022C0.406921 8.95651 9.36123 0.00219727 20.4069 0.00219727H299.505Z"></path></mask><path fill-rule="evenodd" clip-rule="evenodd" d="M299.505 0.00219727C311.521 0.00219727 319.633 15.3969 319.633 27.413C319.633 52.1193 339.661 72.1478 364.367 72.1478C375.988 72.1478 390.407 79.9673 390.407 91.5875V312.633C390.407 323.679 381.453 332.633 370.407 332.633H20.4069C9.36123 332.633 0.406921 323.679 0.406921 312.633V20.0022C0.406921 8.95651 9.36123 0.00219727 20.4069 0.00219727H299.505Z" fill="white"></path><path d="M364.367 71.1478C340.213 71.1478 320.633 51.567 320.633 27.413H318.633C318.633 52.6716 339.109 73.1478 364.367 73.1478V71.1478ZM389.407 91.5875V312.633H391.407V91.5875H389.407ZM389.407 312.633C389.407 323.127 380.9 331.633 370.407 331.633V333.633C382.005 333.633 391.407 324.231 391.407 312.633H389.407ZM370.407 331.633H20.4069V333.633H370.407V331.633ZM20.4069 331.633C9.91351 331.633 1.40692 323.127 1.40692 312.633H-0.593079C-0.593079 324.231 8.80894 333.633 20.4069 333.633V331.633ZM1.40692 312.633V20.0022H-0.593079V312.633h2.40692ZM1.40692 20.0022C1.40692 9.5088 9.91351 1.0022 20.4069 1.0022V-0.997803C8.80894 -0.997803 -0.593079 8.40423 -0.593079 20.0022h2.40692ZM20.4069 1.0022H299.505V-0.997803H20.4069V1.0022ZM364.367 73.1478C369.977 73.1478 376.293 75.0426 381.186 78.3394C386.084 81.6391 389.407 86.2291 389.407 91.5875H391.407C391.407 85.3257 387.521 80.1958 382.303 76.6807C377.082 73.1627 370.378 71.1478 364.367 71.1478V73.1478ZM320.633 27.413C320.633 21.206 318.545 14.1623 314.91 8.65091C311.279 3.14794 305.978 -0.997803 299.505 -0.997803V1.0022C305.048 1.0022 309.811 4.55382 313.24 9.75224C316.664 14.9422 318.633 21.6039 318.633 27.413H320.633Z" fill="#1F9CBD" mask="url(#path-1-inside-1_961_702)"></path></svg>