<svg xmlns="http://www.w3.org/2000/svg" width="390" height="176" viewBox="0 0 390 176" fill="none"><mask id="path-1-inside-1_5467_40111" fill="white"><path fill-rule="evenodd" clip-rule="evenodd" d="M310.911 0C320.89 0 329.168 18.3319 329.168 28.3111C329.168 47.0341 344.346 62.2122 363.069 62.2122C373.153 62.2122 390 69.944 390 80.0276V160.843C390 169.214 383.214 176 374.844 176h25.1565C6.78579 176 0 169.214 0 160.843V15.1565C0 6.78581 6.7858 0 15.1565 0H310.911Z"></path></mask><path fill-rule="evenodd" clip-rule="evenodd" d="M310.911 0C320.89 0 329.168 18.3319 329.168 28.3111C329.168 47.0341 344.346 62.2122 363.069 62.2122C373.153 62.2122 390 69.944 390 80.0276V160.843C390 169.214 383.214 176 374.844 176h25.1565C6.78579 176 0 169.214 0 160.843V15.1565C0 6.78581 6.7858 0 15.1565 0H310.911Z" fill="#1F9CBD"></path><path d="M363.069 61.2122C344.898 61.2122 330.168 46.4819 330.168 28.3111H328.168C328.168 47.5864 343.794 63.2122 363.069 63.2122V61.2122ZM389 80.0276V160.843H391V80.0276H389ZM389 160.843C389 168.662 382.662 175 374.844 175V177C383.766 177 391 169.766 391 160.843H389ZM374.844 175h25.1565V177H374.844V175ZM15.1565 175C7.33808 175 1 168.662 1 160.843H-1C-1 169.766 6.23351 177 15.1565 177V175ZM1 160.843V15.1565H-1V160.843h2ZM1 15.1565C1 7.33809 7.33808 1 15.1565 1V-1C6.23351 -1 -1 6.23352 -1 15.1565h2ZM15.1565 1H310.911V-1h25.1565V1ZM363.069 63.2122C367.904 63.2122 374.465 65.082 379.812 68.2023C385.218 71.357 389 75.5521 389 80.0276H391C391 74.4196 386.358 69.7069 380.82 66.4749C375.222 63.2083 368.317 61.2122 363.069 61.2122V63.2122ZM330.168 28.3111C330.168 23.1073 328.031 15.86 324.651 9.91889C322.956 6.93904 320.918 4.23389 318.626 2.26216C316.335 0.291674 313.724 -1 310.911 -1V1C313.088 1 315.254 1.99982 317.322 3.77842C319.388 5.55577 321.291 8.0573 322.913 10.9078C326.166 16.6275 328.168 23.5357 328.168 28.3111H330.168Z" fill="#1F9CBD" mask="url(#path-1-inside-1_5467_40111)"></path></svg>