<svg xmlns="http://www.w3.org/2000/svg" width="488" height="537" viewBox="0 0 488 537" fill="none"><g clip-path="url(#clip0_255_567)"><path opacity="0.7" d="M440.895 347.911C440.895 347.911 499.749 281.765 481.041 166.671C462.333 51.5766 366.224 9.1723 302.485 31.3248C238.746 53.4774 224.369 92.0341 172.311 114.083C120.253 136.132 21.3331 120.995 -28.1328 195.055C-77.5988 269.116 -14.4473 391.836 65.9492 468.788C146.346 545.74 351.501 497.565 440.895 347.911Z" fill="#248DA8" fill-opacity="0.15"></path><path opacity="0.7" d="M440.895 347.911C440.895 347.911 499.749 281.765 481.041 166.671C462.333 51.5766 366.224 9.1723 302.485 31.3248C238.746 53.4774 224.369 92.0341 172.311 114.083C120.253 136.132 21.3331 120.995 -28.1328 195.055C-77.5988 269.116 -14.4473 391.836 65.9492 468.788C146.346 545.74 351.501 497.565 440.895 347.911Z" fill="#248DA8"></path><path d="M7.95898 533.749H468.923" stroke="#043146" stroke-width="1.15198" stroke-miterlimit="10"></path><path d="M79.4854 358.659L97.7788 533.518" stroke="#043146" stroke-width="2.30396" stroke-miterlimit="10"></path><path d="M94.5304 497.645L86.3975 489.052" stroke="#043146" stroke-width="2.30396" stroke-miterlimit="10"></path><path d="M88.8746 491.632C88.86 490.315 88.5635 489.017 88.0052 487.825C87.4468 486.633 86.6394 485.574 85.6375 484.72C83.5524 482.854 72.5625 478.234 71.5258 482.105C70.3853 486.321 81.6286 494.592 88.8746 491.632Z" fill="#FEB600" stroke="#043146" stroke-width="1.15198" stroke-miterlimit="10"></path><path d="M88.874 491.632L78.4141 485.112" stroke="#043146" stroke-width="0.575989" stroke-miterlimit="10"></path><path d="M96.5697 517.194L88.4482 508.6" stroke="#043146" stroke-width="2.30396" stroke-miterlimit="10"></path><path d="M90.9136 511.181C90.8991 509.864 90.6026 508.566 90.0442 507.374C89.4859 506.182 88.6785 505.123 87.6766 504.269C85.5915 502.403 74.6016 497.783 73.5648 501.654C72.4244 505.87 83.6677 514.13 90.9136 511.181Z" fill="#FEB600" stroke="#043146" stroke-width="1.15198" stroke-miterlimit="10"></path><path d="M90.9131 511.181L80.4531 504.661" stroke="#043146" stroke-width="0.575989" stroke-miterlimit="10"></path><path d="M89.5539 449.942L81.4209 441.36" stroke="#043146" stroke-width="2.30396" stroke-miterlimit="10"></path><path d="M83.898 443.929C83.8834 442.612 83.587 441.314 83.0286 440.122C82.4702 438.93 81.6629 437.871 80.6609 437.017C78.5758 435.162 67.586 430.531 66.5492 434.402C65.4087 438.63 76.652 446.889 83.898 443.929Z" fill="#FEB600" stroke="#043146" stroke-width="1.15198" stroke-miterlimit="10"></path><path d="M83.8975 443.929L73.4375 437.42" stroke="#043146" stroke-width="0.575989" stroke-miterlimit="10"></path><path d="M91.5929 469.491L83.46 460.909" stroke="#043146" stroke-width="2.30396" stroke-miterlimit="10"></path><path d="M85.9369 463.478C85.9224 462.161 85.6259 460.863 85.0675 459.671C84.5091 458.479 83.7018 457.42 82.6998 456.566C80.6148 454.7 69.6249 450.08 68.5881 453.951C67.4477 458.167 78.714 466.438 85.9369 463.478Z" fill="#FEB600" stroke="#043146" stroke-width="1.15198" stroke-miterlimit="10"></path><path d="M85.9365 463.477L75.4766 456.957" stroke="#043146" stroke-width="0.575989" stroke-miterlimit="10"></path><path d="M86.2482 418.194L78.1152 409.6" stroke="#043146" stroke-width="2.30396" stroke-miterlimit="10"></path><path d="M80.58 412.18C80.5655 410.864 80.269 409.565 79.7106 408.373C79.1523 407.181 78.3449 406.122 77.343 405.268C75.2579 403.402 64.268 398.783 63.2312 402.653C62.1023 406.869 73.3456 415.141 80.58 412.18Z" fill="#FEB600" stroke="#043146" stroke-width="1.15198" stroke-miterlimit="10"></path><path d="M80.5801 412.18L70.1201 405.66" stroke="#043146" stroke-width="0.575989" stroke-miterlimit="10"></path><path d="M82.9191 386.307L74.7861 377.713" stroke="#043146" stroke-width="2.30396" stroke-miterlimit="10"></path><path d="M77.2509 380.247C77.2364 378.931 76.9399 377.633 76.3815 376.441C75.8232 375.248 75.0158 374.19 74.0139 373.336C71.9288 371.469 60.9504 366.85 59.9021 370.721C58.7732 374.983 70.0165 383.243 77.2509 380.247Z" fill="#FEB600" stroke="#043146" stroke-width="1.15198" stroke-miterlimit="10"></path><path d="M77.251 380.282L66.791 373.773" stroke="#043146" stroke-width="0.575989" stroke-miterlimit="10"></path><path d="M93.1709 486.079L99.3455 476" stroke="#043146" stroke-width="2.30396" stroke-miterlimit="10"></path><path d="M97.4682 479.029C97.2124 477.74 97.2353 476.411 97.5353 475.132C97.8354 473.852 98.4056 472.652 99.2077 471.611C100.867 469.307 110.658 462.568 112.479 466.139C114.425 470.021 105.21 480.469 97.4682 479.029Z" fill="#FEB600" stroke="#043146" stroke-width="1.15198" stroke-miterlimit="10"></path><path d="M97.4678 479.029L106.879 470.021" stroke="#043146" stroke-width="0.575989" stroke-miterlimit="10"></path><path d="M87.8027 434.644L93.9773 424.564" stroke="#043146" stroke-width="2.30396" stroke-miterlimit="10"></path><path d="M92.1002 427.582C91.8461 426.295 91.8699 424.968 92.1698 423.69C92.4698 422.413 93.0392 421.214 93.8397 420.175C95.4986 417.871 105.29 411.12 107.11 414.691C109.092 418.573 99.7954 428.987 92.1002 427.582Z" fill="#FEB600" stroke="#043146" stroke-width="1.15198" stroke-miterlimit="10"></path><path d="M92.0996 427.582L101.511 418.585" stroke="#043146" stroke-width="0.575989" stroke-miterlimit="10"></path><path d="M85.4414 412.03L91.6275 401.95" stroke="#043146" stroke-width="2.30396" stroke-miterlimit="10"></path><path d="M89.7388 404.98C89.483 403.691 89.5058 402.362 89.8058 401.083C90.1059 399.803 90.6761 398.603 91.4782 397.562C93.1371 395.315 102.929 388.519 104.749 392.09C106.73 395.972 97.434 406.386 89.7388 404.98Z" fill="#FEB600" stroke="#043146" stroke-width="1.15198" stroke-miterlimit="10"></path><path d="M89.7383 404.98L99.1499 395.983" stroke="#043146" stroke-width="0.575989" stroke-miterlimit="10"></path><path d="M81.9854 378.899L88.16 368.82" stroke="#043146" stroke-width="2.30396" stroke-miterlimit="10"></path><path d="M86.2827 371.838C86.0269 370.549 86.0498 369.22 86.3498 367.94C86.6498 366.661 87.22 365.46 88.0222 364.419C89.681 362.173 99.4728 355.376 101.293 358.947C103.274 362.829 93.9779 373.243 86.2827 371.838Z" fill="#FEB600" stroke="#043146" stroke-width="1.15198" stroke-miterlimit="10"></path><path d="M86.2822 371.838L95.6939 362.841" stroke="#043146" stroke-width="0.575989" stroke-miterlimit="10"></path><path d="M79.3356 357.703C79.0815 356.416 79.1052 355.089 79.4052 353.811C79.7052 352.534 80.2745 351.335 81.0751 350.296C82.7339 347.992 92.5257 341.241 94.3459 344.812C96.3273 348.695 87.0308 359.108 79.3356 357.703Z" fill="#FEB600" stroke="#043146" stroke-width="1.15198" stroke-miterlimit="10"></path><path d="M79.3359 357.703L88.7591 348.706" stroke="#043146" stroke-width="0.575989" stroke-miterlimit="10"></path><path d="M79.8659 358.095C78.5561 358.214 77.2359 358.052 75.9941 357.619C74.7522 357.185 73.6174 356.491 72.666 355.583C70.5925 353.706 64.8672 343.246 68.6111 341.817C72.7006 340.251 82.0777 350.595 79.8659 358.095Z" fill="#FEB600" stroke="#043146" stroke-width="1.15198" stroke-miterlimit="10"></path><path d="M79.8887 358.095L71.917 347.784" stroke="#043146" stroke-width="0.575989" stroke-miterlimit="10"></path><path d="M126.797 382.332L111.672 533.518" stroke="#043146" stroke-width="2.30396" stroke-miterlimit="10"></path><path d="M112.905 521.434L106.719 511.354" stroke="#043146" stroke-width="2.30396" stroke-miterlimit="10"></path><path d="M108.665 514.384C108.919 513.094 108.895 511.764 108.593 510.485C108.291 509.205 107.718 508.005 106.914 506.965C105.255 504.719 95.4635 497.933 93.6434 501.504C91.6044 505.387 100.912 515.789 108.665 514.384Z" fill="#FEB600" stroke="#043146" stroke-width="1.15198" stroke-miterlimit="10"></path><path d="M108.608 514.384L99.7148 505.847" stroke="#043146" stroke-width="0.575989" stroke-miterlimit="10"></path><path d="M117.858 473.73L111.672 463.65" stroke="#043146" stroke-width="2.30396" stroke-miterlimit="10"></path><path d="M113.549 466.645C113.805 465.356 113.782 464.027 113.482 462.748C113.182 461.468 112.612 460.268 111.81 459.227C110.151 456.98 100.348 450.195 98.5391 453.766C96.5577 457.683 105.854 468.085 113.549 466.645Z" fill="#FEB600" stroke="#043146" stroke-width="1.15198" stroke-miterlimit="10"></path><path d="M113.55 466.68L104.668 458.156" stroke="#043146" stroke-width="0.575989" stroke-miterlimit="10"></path><path d="M115.83 493.279L109.633 483.199" stroke="#043146" stroke-width="2.30396" stroke-miterlimit="10"></path><path d="M111.522 486.229C111.778 484.94 111.755 483.611 111.455 482.332C111.155 481.052 110.585 479.851 109.782 478.81C108.124 476.564 98.3202 469.779 96.5001 473.35C94.5302 477.232 103.827 487.634 111.522 486.229Z" fill="#FEB600" stroke="#043146" stroke-width="1.15198" stroke-miterlimit="10"></path><path d="M111.522 486.229L102.629 477.705" stroke="#043146" stroke-width="0.575989" stroke-miterlimit="10"></path><path d="M121.153 441.982L114.967 431.902" stroke="#043146" stroke-width="2.30396" stroke-miterlimit="10"></path><path d="M116.844 434.931C117.1 433.642 117.077 432.313 116.777 431.034C116.477 429.754 115.907 428.554 115.105 427.513C113.446 425.209 103.585 418.47 101.834 422.041C99.8526 425.923 109.149 436.325 116.844 434.931Z" fill="#FEB600" stroke="#043146" stroke-width="1.15198" stroke-miterlimit="10"></path><path d="M116.845 434.932L107.963 426.396" stroke="#043146" stroke-width="0.575989" stroke-miterlimit="10"></path><path d="M124.459 410.083L118.272 400.004" stroke="#043146" stroke-width="2.30396" stroke-miterlimit="10"></path><path d="M120.185 403.033C120.439 401.743 120.414 400.414 120.112 399.134C119.81 397.855 119.238 396.655 118.434 395.615C116.775 393.368 106.983 386.583 105.163 390.154C103.158 394.071 112.466 404.439 120.185 403.033Z" fill="#FEB600" stroke="#043146" stroke-width="1.15198" stroke-miterlimit="10"></path><path d="M120.162 403.033L111.269 394.509" stroke="#043146" stroke-width="0.575989" stroke-miterlimit="10"></path><path d="M113.953 509.833L122.075 501.24" stroke="#043146" stroke-width="2.30396" stroke-miterlimit="10"></path><path d="M119.609 503.82C119.623 502.504 119.917 501.207 120.474 500.015C121.03 498.822 121.835 497.763 122.835 496.908C124.92 495.042 135.91 490.411 136.958 494.282C138.087 498.498 126.855 506.769 119.609 503.82Z" fill="#FEB600" stroke="#043146" stroke-width="1.15198" stroke-miterlimit="10"></path><path d="M119.609 503.82L130.68 496.954" stroke="#043146" stroke-width="0.575989" stroke-miterlimit="10"></path><path d="M119.286 458.397L127.419 449.803" stroke="#043146" stroke-width="2.30396" stroke-miterlimit="10"></path><path d="M124.942 452.373C124.957 451.056 125.253 449.758 125.812 448.566C126.37 447.374 127.177 446.315 128.179 445.461C130.265 443.595 141.243 438.975 142.291 442.834C143.432 447.062 132.188 455.333 124.942 452.373Z" fill="#FEB600" stroke="#043146" stroke-width="1.15198" stroke-miterlimit="10"></path><path d="M124.942 452.372L136.013 445.507" stroke="#043146" stroke-width="0.575989" stroke-miterlimit="10"></path><path d="M121.637 435.784L129.758 427.19" stroke="#043146" stroke-width="2.30396" stroke-miterlimit="10"></path><path d="M127.293 429.782C127.306 428.467 127.601 427.169 128.157 425.977C128.713 424.785 129.519 423.726 130.519 422.87C132.604 421.004 143.593 416.373 144.642 420.244C145.771 424.449 134.539 432.72 127.293 429.782Z" fill="#FEB600" stroke="#043146" stroke-width="1.15198" stroke-miterlimit="10"></path><path d="M127.293 429.771L138.363 422.905" stroke="#043146" stroke-width="0.575989" stroke-miterlimit="10"></path><path d="M125.069 402.642L133.202 394.048" stroke="#043146" stroke-width="2.30396" stroke-miterlimit="10"></path><path d="M130.726 396.628C130.74 395.312 131.037 394.014 131.595 392.822C132.153 391.629 132.961 390.57 133.963 389.716C136.048 387.85 147.026 383.219 148.074 387.09C149.215 391.306 137.972 399.577 130.726 396.628Z" fill="#FEB600" stroke="#043146" stroke-width="1.15198" stroke-miterlimit="10"></path><path d="M130.726 396.628L141.796 389.763" stroke="#043146" stroke-width="0.575989" stroke-miterlimit="10"></path><path d="M126.844 381.399C126.858 380.083 127.155 378.785 127.713 377.592C128.272 376.4 129.079 375.341 130.081 374.487C132.166 372.621 143.144 368.002 144.193 371.872C145.333 376.054 134.09 384.325 126.844 381.399Z" fill="#FEB600" stroke="#043146" stroke-width="1.15198" stroke-miterlimit="10"></path><path d="M126.844 381.365L137.914 374.499" stroke="#043146" stroke-width="0.575989" stroke-miterlimit="10"></path><path d="M127.304 381.86C125.999 381.706 124.743 381.275 123.618 380.595C122.494 379.916 121.527 379.004 120.784 377.92C119.137 375.616 115.692 364.246 119.632 363.613C123.952 362.968 131.002 374.971 127.304 381.86Z" fill="#FEB600" stroke="#043146" stroke-width="1.15198" stroke-miterlimit="10"></path><path d="M127.304 381.86L121.625 370.133" stroke="#043146" stroke-width="0.575989" stroke-miterlimit="10"></path><path d="M106.362 312.338L105.244 533.783" stroke="#043146" stroke-width="2.30396" stroke-miterlimit="10"></path><path d="M106.534 497.023L99.334 487.635" stroke="#043146" stroke-width="2.30396" stroke-miterlimit="10"></path><path d="M101.523 490.445C101.642 489.138 101.481 487.821 101.05 486.581C100.619 485.341 99.9277 484.208 99.0231 483.257C97.1454 481.183 86.697 475.447 85.257 479.179C83.6903 483.257 94.012 492.634 101.523 490.445Z" fill="#FEB600" stroke="#043146" stroke-width="1.15198" stroke-miterlimit="10"></path><path d="M101.523 490.445L91.8008 482.877" stroke="#043146" stroke-width="0.575989" stroke-miterlimit="10"></path><path d="M106.534 456.174L99.334 446.785" stroke="#043146" stroke-width="2.30396" stroke-miterlimit="10"></path><path d="M101.523 449.596C101.642 448.289 101.481 446.972 101.05 445.732C100.619 444.492 99.9277 443.359 99.0231 442.408C97.1454 440.334 86.697 434.597 85.257 438.341C83.6903 442.454 94.012 451.785 101.523 449.596Z" fill="#FEB600" stroke="#043146" stroke-width="1.15198" stroke-miterlimit="10"></path><path d="M101.523 449.596L91.8008 442.028" stroke="#043146" stroke-width="0.575989" stroke-miterlimit="10"></path><path d="M106.534 408.217L99.334 398.829" stroke="#043146" stroke-width="2.30396" stroke-miterlimit="10"></path><path d="M101.523 401.639C101.642 400.332 101.481 399.015 101.05 397.775C100.619 396.535 99.9277 395.402 99.0231 394.451C97.1454 392.378 86.697 386.641 85.257 390.385C83.6903 394.451 94.012 403.828 101.523 401.639Z" fill="#FEB600" stroke="#043146" stroke-width="1.15198" stroke-miterlimit="10"></path><path d="M101.523 401.64L91.8008 394.071" stroke="#043146" stroke-width="0.575989" stroke-miterlimit="10"></path><path d="M106.534 376.284L99.334 366.907" stroke="#043146" stroke-width="2.30396" stroke-miterlimit="10"></path><path d="M101.523 369.718C101.644 368.409 101.483 367.09 101.052 365.848C100.621 364.606 99.9292 363.471 99.0231 362.518C97.1454 360.456 86.697 354.719 85.257 358.452C83.6903 362.518 94.012 371.907 101.523 369.718Z" fill="#FEB600" stroke="#043146" stroke-width="1.15198" stroke-miterlimit="10"></path><path d="M101.523 369.718L91.8008 362.15" stroke="#043146" stroke-width="0.575989" stroke-miterlimit="10"></path><path d="M106.534 344.225L99.334 334.836" stroke="#043146" stroke-width="2.30396" stroke-miterlimit="10"></path><path d="M101.523 337.624C101.644 336.315 101.483 334.995 101.052 333.754C100.621 332.512 99.9292 331.377 99.0231 330.424C97.1454 328.351 86.697 322.614 85.257 326.358C83.6903 330.459 94.012 339.847 101.523 337.624Z" fill="#FEB600" stroke="#043146" stroke-width="1.15198" stroke-miterlimit="10"></path><path d="M101.523 337.659L91.8008 330.09" stroke="#043146" stroke-width="0.575989" stroke-miterlimit="10"></path><path d="M106.373 509.488L113.573 500.111" stroke="#043146" stroke-width="2.30396" stroke-miterlimit="10"></path><path d="M111.384 502.922C111.263 501.613 111.423 500.293 111.855 499.051C112.286 497.809 112.978 496.674 113.884 495.722C115.761 493.66 126.21 487.923 127.65 491.655C129.216 495.722 118.883 505.11 111.384 502.922Z" fill="#FEB600" stroke="#043146" stroke-width="1.15198" stroke-miterlimit="10"></path><path d="M111.384 502.921L121.682 494.95" stroke="#043146" stroke-width="0.575989" stroke-miterlimit="10"></path><path d="M106.373 444.528L113.573 435.139" stroke="#043146" stroke-width="2.30396" stroke-miterlimit="10"></path><path d="M111.384 437.961C111.263 436.652 111.423 435.333 111.855 434.091C112.286 432.849 112.978 431.714 113.884 430.761C115.761 428.688 126.21 422.951 127.65 426.695C129.216 430.761 118.883 440.15 111.384 437.961Z" fill="#FEB600" stroke="#043146" stroke-width="1.15198" stroke-miterlimit="10"></path><path d="M111.384 437.961L121.682 429.978" stroke="#043146" stroke-width="0.575989" stroke-miterlimit="10"></path><path d="M106.373 412.457L113.573 403.08" stroke="#043146" stroke-width="2.30396" stroke-miterlimit="10"></path><path d="M111.384 405.89C111.263 404.581 111.423 403.262 111.855 402.02C112.286 400.778 112.978 399.643 113.884 398.69C115.761 396.628 126.21 390.892 127.65 394.624C129.216 398.679 118.883 408.079 111.384 405.89Z" fill="#FEB600" stroke="#043146" stroke-width="1.15198" stroke-miterlimit="10"></path><path d="M111.384 405.89L121.682 397.918" stroke="#043146" stroke-width="0.575989" stroke-miterlimit="10"></path><path d="M106.373 370.075L113.573 360.698" stroke="#043146" stroke-width="2.30396" stroke-miterlimit="10"></path><path d="M111.384 363.509C111.263 362.2 111.423 360.88 111.855 359.639C112.286 358.397 112.978 357.262 113.884 356.309C115.761 354.247 126.21 348.51 127.65 352.243C129.216 356.309 118.883 365.698 111.384 363.509Z" fill="#FEB600" stroke="#043146" stroke-width="1.15198" stroke-miterlimit="10"></path><path d="M111.384 363.509L121.682 355.537" stroke="#043146" stroke-width="0.575989" stroke-miterlimit="10"></path><path d="M106.373 336.76L113.573 327.371" stroke="#043146" stroke-width="2.30396" stroke-miterlimit="10"></path><path d="M111.384 330.194C111.263 328.885 111.423 327.565 111.855 326.323C112.286 325.081 112.978 323.946 113.884 322.994C115.761 320.92 126.21 315.183 127.65 318.927C129.216 322.994 118.883 332.382 111.384 330.194Z" fill="#FEB600" stroke="#043146" stroke-width="1.15198" stroke-miterlimit="10"></path><path d="M111.384 330.194L121.682 322.222" stroke="#043146" stroke-width="0.575989" stroke-miterlimit="10"></path><path d="M105.946 315.414C105.825 314.105 105.986 312.785 106.417 311.544C106.848 310.302 107.54 309.167 108.446 308.214C110.324 306.141 120.772 300.415 122.212 304.148C123.779 308.214 113.446 317.603 105.946 315.414Z" fill="#FEB600" stroke="#043146" stroke-width="1.15198" stroke-miterlimit="10"></path><path d="M105.946 315.414L116.245 307.442" stroke="#043146" stroke-width="0.575989" stroke-miterlimit="10"></path><path d="M106.442 315.852C105.125 315.837 103.827 315.541 102.635 314.982C101.443 314.424 100.384 313.617 99.5298 312.615C97.6636 310.518 93.0557 299.528 96.9263 298.491C101.154 297.362 109.414 308.617 106.442 315.852Z" fill="#FEB600" stroke="#043146" stroke-width="1.15198" stroke-miterlimit="10"></path><path d="M106.442 315.852L99.5996 304.781" stroke="#043146" stroke-width="0.575989" stroke-miterlimit="10"></path><path d="M418.04 533.749L410.672 448.822H236.243L226.607 533.749H418.04Z" fill="#043146" stroke="#043146" stroke-width="1.2746" stroke-miterlimit="10"></path><path d="M311.203 191.416C311.203 191.416 260.219 205.437 237.914 222.313C215.608 239.188 200.186 256.446 203.78 289.14C207.374 321.833 230.725 411.285 230.725 411.285C230.725 411.285 227.488 447.573 227.488 449.727C227.488 451.881 227.131 457.986 235.033 458.343C242.936 458.7 337.779 462.664 358.975 463.021C380.172 463.378 408.2 461.224 411.425 458.713C413.021 457.386 414.325 455.743 415.253 453.887C416.181 452.031 416.713 450.002 416.817 447.93C417.173 443.621 420.768 390.802 420.768 390.802L421.125 367.094C421.125 367.094 444.488 289.497 445.916 264.349C447.343 239.201 438.013 230.942 427.6 223.039C417.186 215.137 384.76 201.753 367.247 196.451C349.734 191.149 311.203 191.416 311.203 191.416Z" fill="#FEB600" stroke="#043146" stroke-width="1.2746" stroke-miterlimit="10"></path><path d="M323.783 311.994C321.234 346.981 316.569 411.412 316.977 422.514C317.55 437.809 311.317 442.334 311.317 448.006" stroke="#043146" stroke-width="1.2746" stroke-miterlimit="10"></path><path d="M325.478 289.42C325.478 289.42 325.019 295.373 324.318 304.792" stroke="#043146" stroke-width="1.2746" stroke-miterlimit="10"></path><path d="M348.243 334.363L351.506 372.856L369.771 371.556L348.243 334.363Z" fill="#043146" stroke="#043146" stroke-width="1.2746" stroke-miterlimit="10"></path><path d="M330.934 401.483C330.934 401.483 375.545 394.473 378.897 395.212C382.249 395.951 405.09 407.015 408.416 407.754C410.58 408.267 412.683 409.01 414.688 409.972L419.697 414.165L417.989 401.483C417.989 401.483 411.348 393.364 396.588 387.463C381.828 381.561 374.448 384.913 371.096 385.997C367.744 387.08 330.934 401.483 330.934 401.483Z" fill="#043146" stroke="#043146" stroke-width="1.2746" stroke-miterlimit="10"></path><path d="M262.335 367.821L378.323 367.451C378.323 367.451 415.694 363.87 417.122 363.5C418.55 363.13 433.297 367.094 434.737 368.178C436.177 369.261 436.165 372.486 435.451 375.723L434.737 378.948C435.263 381.681 435.62 384.444 435.808 387.22C435.808 389.77 432.94 390.445 432.57 391.529C432.2 392.612 434.737 396.55 431.856 399.074L428.988 401.623C428.988 401.623 428.619 408.455 427.191 410.252C425.764 412.05 421.443 415.274 419.646 414.204C417.848 413.133 418.562 410.252 418.562 408.455C418.562 406.658 417.848 404.861 415.694 404.861C413.54 404.861 413.145 406.658 402.043 403.777C390.942 400.897 378.693 391.21 377.609 390.84C376.526 390.471 279.172 416.715 250.43 420.309C221.688 423.903 219.177 419.952 218.093 415.211C217.01 410.469 215.225 399.406 215.225 399.406L210.127 377.495L262.335 367.821Z" fill="white" stroke="#043146" stroke-width="1.2746" stroke-miterlimit="10"></path><path d="M337.753 233.529C337.753 233.529 343.756 227.156 347.542 230.05C351.327 232.943 354.794 248.034 359.523 246.772C364.252 245.511 373.722 216.182 373.722 204.507C373.722 192.831 365.513 185.898 363.627 185.26C361.741 184.623 313.472 183.986 307.787 186.216C302.102 188.447 299.91 208.292 297.705 220.274C295.5 232.255 300.534 235.097 303.695 233.529C306.856 231.962 319.144 226.901 321.986 226.901C324.828 226.901 337.753 233.529 337.753 233.529Z" fill="#FEB600" stroke="#043146" stroke-width="1.2746" stroke-miterlimit="10"></path><path d="M370.064 167.033C370.064 167.033 365.539 189.39 363.78 194.909C362.021 200.428 349.212 217.265 345.936 220.783C342.66 224.301 333.126 241.623 330.641 242.133C328.155 242.643 321.119 219.024 321.119 219.024C321.119 219.024 312.07 203.449 310.311 199.434C308.552 195.419 305.824 183.616 305.824 183.616C305.824 183.616 320.635 196.362 336.415 193.66C352.194 190.958 360.262 175.076 360.262 175.076L370.064 167.033Z" fill="white" stroke="#043146" stroke-width="1.2746" stroke-miterlimit="10"></path><path d="M308.743 122.499C308.743 122.499 304.32 117.757 301.797 125.048C299.273 132.339 304.346 145.225 304.346 145.225L308.743 122.499Z" fill="white" stroke="#043146" stroke-width="1.2746" stroke-miterlimit="10"></path><path d="M309.533 107.714C309.533 107.714 302.255 159.45 302.255 162.521C302.255 165.593 300.241 175.573 303.262 182.112C306.283 188.651 315.307 196.668 322.598 197.675C329.889 198.682 344.19 197.178 352.232 190.894C360.275 184.61 369.554 171.061 369.554 171.061C369.554 171.061 379.611 169.544 386.124 166.791C392.637 164.038 397.672 157.742 397.43 151.216C397.14 147.037 395.658 143.03 393.16 139.668L389.336 132.632L399.38 113.793C399.38 113.793 393.606 102.998 375.022 92.6988C356.438 82.4001 339.856 79.1371 332.081 79.1371C324.306 79.1371 314.491 82.4001 311.687 88.6838C308.883 94.9676 309.533 107.714 309.533 107.714Z" fill="white" stroke="#043146" stroke-width="1.2746" stroke-miterlimit="10"></path><path d="M333.394 82.3999C333.394 82.3999 347.708 106.005 358.516 105.011C369.325 104.017 372.537 98.9824 372.537 98.9824L379.815 108.771C379.815 108.771 372.04 112.034 373.544 116.062C375.048 120.09 381.829 129.114 381.829 129.114L376.297 152.72C376.297 152.72 380.567 153.472 381.332 151.968C382.096 150.464 385.844 141.172 385.844 141.172C386.857 140.522 387.955 140.016 389.107 139.668C390.434 139.382 391.807 139.382 393.134 139.668C393.134 139.668 395.887 130.376 396.958 130.121C398.029 129.866 408.009 127.1 411.782 117.311C415.555 107.522 409.768 91.9467 396.703 79.6468C383.639 67.3469 356.018 64.0712 354.514 61.8024C353.01 59.5336 361.55 62.7966 359.791 57.7746C358.032 52.7527 346.981 46.2268 332.922 53.2625C318.863 60.2983 320.865 68.0734 322.369 70.5844L323.873 73.1336C323.873 73.1336 312.07 69.1186 303.785 74.1405C295.5 79.1624 291.485 89.2063 295.245 90.2132C299.005 91.2201 303.785 88.9386 303.785 88.9386C303.785 88.9386 298.763 97.2235 300.267 98.9824C301.771 100.741 309.559 107.764 309.559 107.764C309.559 107.764 312.58 90.1877 318.851 87.6767C325.122 85.1658 333.394 82.3999 333.394 82.3999Z" fill="#043146" stroke="#043146" stroke-width="1.2746" stroke-miterlimit="10"></path><path d="M328.869 116.304L331.138 123.595L318.328 147.698L331.89 152.974" stroke="#043146" stroke-width="1.2746" stroke-miterlimit="10"></path><path d="M326.358 113.538C326.358 113.538 320.342 108.771 315.307 110.033C310.272 111.295 313.306 112.034 316.824 113.296C320.342 114.558 327.365 117.808 326.358 113.538Z" fill="#043146" stroke="#043146" stroke-width="1.2746" stroke-miterlimit="10"></path><path d="M344.954 112.544C344.954 112.544 339.167 114.048 341.933 115.297C344.699 116.547 352.984 114.023 356.247 115.297C359.51 116.572 363.78 120.829 363.538 118.815C363.167 117.083 362.351 115.478 361.171 114.157C359.991 112.836 358.487 111.845 356.808 111.283C352.232 109.778 344.954 112.544 344.954 112.544Z" fill="#043146" stroke="#043146" stroke-width="1.2746" stroke-miterlimit="10"></path><path d="M323.044 124.691C322.598 126.514 321.374 127.776 320.291 127.508C319.207 127.24 318.697 125.571 319.131 123.748C319.564 121.925 320.813 120.663 321.884 120.918C322.955 121.173 323.477 122.868 323.044 124.691Z" fill="#043146"></path><path d="M350.436 131.854C349.99 133.664 348.753 134.926 347.682 134.671C346.612 134.416 346.089 132.721 346.523 130.847C346.956 128.974 348.192 127.763 349.276 128.031C350.359 128.298 350.856 130.032 350.436 131.854Z" fill="#043146"></path><path d="M310.54 155.983L320.839 162.763" stroke="#043146" stroke-width="1.2746" stroke-miterlimit="10"></path><path d="M416.46 216.921C416.46 216.921 452.021 230.585 458.853 251.055C465.685 271.525 457.056 297.4 453.461 308.183C449.867 318.966 427.6 360.989 424.005 371.046C420.411 381.103 415.019 393.326 415.019 393.326C415.019 393.326 409.998 363.143 396.321 344.471C382.645 325.798 379.433 308.897 379.433 308.897C379.433 308.897 404.224 265.063 410.686 251.412" fill="#FEB600"></path><path d="M416.46 216.921C416.46 216.921 452.021 230.585 458.853 251.055C465.685 271.525 457.056 297.4 453.461 308.183C449.867 318.966 427.6 360.989 424.005 371.046C420.411 381.103 415.019 393.326 415.019 393.326C415.019 393.326 409.998 363.143 396.321 344.471C382.645 325.798 379.433 308.897 379.433 308.897C379.433 308.897 404.224 265.063 410.686 251.412" stroke="#043146" stroke-width="1.2746" stroke-miterlimit="10"></path><path d="M383.231 301.3C383.231 301.3 390.509 297.667 392.931 298.878C395.352 300.089 426.491 316.722 430.531 335.676C433.449 349.933 431.455 364.758 424.872 377.737C421.227 384.62 414.357 397.953 409.105 399.571C403.854 401.19 399.393 357.93 388.482 335.293C377.572 312.656 383.231 301.3 383.231 301.3Z" fill="#FEB600" stroke="#043146" stroke-width="1.2746" stroke-miterlimit="10"></path><path d="M395.263 280.511C395.263 280.511 401.725 258.601 404.249 249.984" stroke="#043146" stroke-width="1.2746" stroke-miterlimit="10"></path><path d="M330.386 202.697C330.386 202.697 320.342 188.676 312.541 179.346C304.741 170.016 296.711 164.523 293.958 165.326C291.205 166.128 290.134 168.843 291.944 172.106C293.754 175.369 301.988 182.66 303.492 184.674C304.996 186.688 307.315 193.966 307.315 193.966C307.315 193.966 300.038 194.463 298.776 195.967C297.602 197.713 296.595 199.565 295.768 201.499C294.251 202.266 292.94 203.385 291.944 204.762C291.194 205.812 290.681 207.012 290.44 208.28C290.185 209.286 286.616 211.045 286.922 215.557C287.228 220.07 291.447 226.608 292.951 229.578C294.455 232.548 305.506 245.893 307.519 248.162C309.533 250.431 321.081 270.505 324.089 277.286C327.097 284.067 356.235 362.684 364.774 374.487C373.314 386.29 389.132 397.583 397.672 401.611C406.212 405.639 412.241 398.845 416.256 390.305C420.271 381.765 423.788 364.686 416.013 345.095C408.238 325.504 392.905 308.68 381.102 298.636C369.299 288.592 347.198 263.482 344.687 258.958C342.176 254.433 338.964 244.389 338.964 244.389C338.964 244.389 345.49 225.27 345.987 220.783C346.484 216.297 343.986 208.229 344.712 204.711C345.439 201.193 348.472 194.157 349.734 191.149C350.996 188.141 355.253 183.106 352.997 180.85C350.741 178.594 341.449 181.347 338.186 186.624C335.276 191.826 332.672 197.192 330.386 202.697Z" fill="white" stroke="#043146" stroke-width="1.2746" stroke-miterlimit="10"></path><path d="M252.763 257.084C253.515 253.094 254.037 250.341 254.037 250.341L252.763 257.084Z" fill="#FEB600"></path><path d="M252.763 257.084C253.515 253.094 254.037 250.341 254.037 250.341" stroke="#043146" stroke-width="1.2746" stroke-miterlimit="10"></path><path d="M250.481 215.851C250.481 215.851 231.438 218.4 211.682 239.558C191.926 260.717 200.542 311.05 202.339 321.477C204.136 331.903 207.017 363.908 207.017 363.908L257.67 347.02C257.67 347.02 249.41 290.619 248.684 285.584C248.327 283.035 249.703 274.113 251.156 265.828" fill="#FEB600"></path><path d="M250.481 215.851C250.481 215.851 231.438 218.4 211.682 239.558C191.926 260.717 200.542 311.05 202.339 321.477C204.136 331.903 207.017 363.908 207.017 363.908L257.67 347.02C257.67 347.02 249.41 290.619 248.684 285.584C248.327 283.035 249.703 274.113 251.156 265.828" stroke="#043146" stroke-width="1.2746" stroke-miterlimit="10"></path><path d="M201.983 352.73C201.983 352.73 207.017 379.675 209.528 381.102C212.039 382.53 251.195 371.772 255.516 371.046C259.837 370.319 262.335 371.403 262.335 367.821C262.335 364.239 258.74 347.338 256.586 344.47C254.432 341.603 207.731 347.695 203.78 348.779C199.828 349.862 201.983 352.73 201.983 352.73Z" fill="#FEB600" stroke="#043146" stroke-width="1.2746" stroke-miterlimit="10"></path><path d="M230.623 331.903C239.546 335.476 248.205 339.675 256.536 344.47C256.536 344.47 244.325 321.528 239.29 316.799" stroke="#043146" stroke-width="1.2746" stroke-miterlimit="10"></path><path d="M223.893 329.379C225.333 329.876 226.76 330.399 228.162 330.921" stroke="#043146" stroke-width="1.2746" stroke-miterlimit="10"></path><path d="M341.717 446.987C351.009 443.673 359.561 440.027 364.66 436.433" stroke="#043146" stroke-width="1.2746" stroke-miterlimit="10"></path><path d="M297.909 459.783C297.909 459.783 317.755 455.08 336.593 448.758" stroke="#043146" stroke-width="1.2746" stroke-miterlimit="10"></path><path d="M381.382 434.941C371.619 439.81 356.158 446.923 343.526 450.084" stroke="#043146" stroke-width="1.2746" stroke-miterlimit="10"></path><path d="M390.955 429.971C390.955 429.971 388.954 431.08 385.627 432.788" stroke="#043146" stroke-width="1.2746" stroke-miterlimit="10"></path><path d="M93.755 83.3142C35.5327 111.362 24.4907 193.708 61.4189 243.206C69.1362 253.554 79.2233 262.304 91.1768 267.348C131.977 284.649 164.677 250.246 184.565 218.631C216.32 168.169 220.287 155.695 219.722 164.193C219.158 172.692 233.898 181.772 242.405 137.014C253.282 79.7204 173.106 66.6991 132.524 72.116C119.092 73.7841 106.008 77.5634 93.755 83.3142Z" fill="#1F9CBD"></path><path d="M237.481 187.47C240.895 181.305 240.665 174.646 236.966 172.597C233.266 170.549 227.5 173.886 224.085 180.051C220.67 186.216 220.901 192.875 224.6 194.923C228.299 196.972 234.066 193.635 237.481 187.47Z" fill="#043146" stroke="#043146" stroke-width="0.868082" stroke-miterlimit="10"></path><path d="M243.56 188.734C241.546 192.371 241.684 196.312 243.863 197.519C246.042 198.726 249.462 196.755 251.476 193.118C253.49 189.481 253.36 185.54 251.173 184.333C248.985 183.126 245.565 185.088 243.56 188.734Z" fill="#043146" stroke="#043146" stroke-width="0.868082" stroke-miterlimit="10"></path><path d="M97.1229 77.9841C38.8833 105.997 27.8413 188.343 64.7695 237.841C72.4867 248.189 82.5825 256.939 94.5273 261.983C135.327 279.284 168.028 244.882 187.916 213.266C219.67 162.804 223.646 150.33 223.073 158.829C222.5 167.327 237.249 176.407 245.756 131.614C256.633 74.3208 176.457 61.2996 135.874 66.7164C122.444 68.4084 109.366 72.2111 97.1229 77.9841Z" stroke="#043146" stroke-width="0.868082" stroke-miterlimit="10"></path><path d="M227.439 174.689C224.019 180.852 224.253 187.51 227.951 189.559C231.649 191.608 237.413 188.265 240.834 182.102C244.254 175.939 244.011 169.28 240.313 167.232C236.615 165.183 230.851 168.525 227.439 174.689Z" fill="white" stroke="#043146" stroke-width="0.868082" stroke-miterlimit="10"></path><path d="M246.92 183.369C244.897 187.015 245.036 190.947 247.223 192.154C249.411 193.361 252.814 191.399 254.828 187.753C256.842 184.107 256.712 180.175 254.524 178.968C252.336 177.761 248.934 179.723 246.92 183.369Z" fill="white" stroke="#043146" stroke-width="0.868082" stroke-miterlimit="10"></path><path d="M121.879 174.577C120.345 173.771 118.91 172.314 117.575 170.204C116.189 167.961 115.487 165.361 115.556 162.725C115.556 159.948 116.296 157.863 117.777 156.471C119.257 155.079 121.432 154.024 124.301 153.307L134.79 150.769C139.277 149.619 141.519 147.467 141.515 144.314C141.515 142.611 140.687 141.131 139.03 139.873C137.373 138.614 134.525 137.987 130.486 137.991C126.985 137.968 123.498 138.443 120.13 139.401C117.39 140.134 114.764 141.243 112.328 142.697C110.791 141.522 109.471 140.087 108.428 138.457C107.313 136.662 106.751 134.58 106.811 132.468C106.783 130.266 107.498 128.12 108.842 126.375C110.331 124.515 112.245 123.039 114.423 122.072C117.119 120.855 119.971 120.017 122.897 119.58C126.479 119.021 130.1 118.751 133.725 118.775C144.3 118.76 152.307 121.101 157.745 125.8C163.184 130.498 165.896 136.664 165.881 144.297C165.881 158.646 155.747 167.838 135.48 171.873L121.879 174.577ZM117.437 192.199C117.437 188.525 118.588 185.499 120.889 183.121C123.191 180.743 126.353 179.553 130.377 179.553C134.408 179.553 137.568 180.743 139.858 183.121C142.148 185.499 143.299 188.525 143.31 192.199C143.31 195.882 142.16 198.908 139.858 201.278C137.557 203.649 134.396 204.838 130.377 204.845C126.338 204.845 123.175 203.656 120.889 201.278C118.603 198.9 117.453 195.874 117.437 192.199Z" fill="white"></path><path d="M130.354 205.121C126.258 205.121 122.996 203.89 120.66 201.468C118.324 199.046 117.15 195.927 117.15 192.188C117.15 188.448 118.33 185.33 120.66 182.907C122.99 180.485 126.258 179.254 130.354 179.254C134.451 179.254 137.713 180.485 140.043 182.907C142.373 185.33 143.552 188.454 143.552 192.188C143.552 195.922 142.373 199.051 140.043 201.468C137.713 203.884 134.451 205.121 130.354 205.121ZM130.354 179.806C126.419 179.806 123.295 180.957 121.074 183.258C118.853 185.56 117.726 188.557 117.726 192.136C117.726 195.714 118.876 198.706 121.074 201.019C123.272 203.332 126.419 204.471 130.354 204.471C134.29 204.471 137.408 203.32 139.629 201.019C141.849 198.718 142.977 195.72 142.977 192.136C142.977 188.551 141.855 185.623 139.629 183.322C137.402 181.02 134.29 179.829 130.354 179.829V179.806ZM121.88 174.83C121.831 174.829 121.784 174.817 121.741 174.795C120.182 173.972 118.698 172.494 117.329 170.325C115.923 168.037 115.208 165.392 115.269 162.707C115.269 159.859 116.046 157.685 117.57 156.241C119.095 154.797 121.321 153.738 124.227 153.013L134.733 150.476C139.105 149.325 141.234 147.317 141.234 144.302C141.234 142.703 140.44 141.282 138.863 140.091C137.287 138.9 134.445 138.267 130.492 138.267C127.018 138.246 123.559 138.717 120.217 139.665C117.504 140.394 114.904 141.491 112.49 142.927C112.44 142.96 112.382 142.977 112.323 142.977C112.264 142.977 112.206 142.96 112.156 142.927C110.597 141.73 109.256 140.272 108.192 138.618C107.051 136.772 106.476 134.631 106.541 132.462C106.505 130.19 107.236 127.972 108.618 126.168C110.13 124.267 112.075 122.756 114.291 121.761C117.012 120.534 119.889 119.688 122.84 119.246C126.437 118.685 130.074 118.414 133.714 118.435C144.318 118.435 152.459 120.834 157.919 125.569C163.379 130.304 166.152 136.61 166.152 144.285C166.152 158.72 155.847 168.093 135.521 172.143L121.931 174.83h221.88ZM130.51 137.669C134.589 137.669 137.523 138.319 139.226 139.608C140.929 140.896 141.826 142.484 141.826 144.279C141.826 147.547 139.496 149.814 134.888 151.011L124.376 153.594C121.569 154.296 119.411 155.32 117.979 156.684C116.546 158.047 115.85 160.044 115.85 162.73C115.788 165.307 116.473 167.847 117.823 170.043C119.106 172.057 120.487 173.495 121.931 174.266L135.417 171.596C155.433 167.609 165.582 158.427 165.582 144.302C165.582 136.823 162.878 130.65 157.527 126.018C152.177 121.387 144.162 119.028 133.703 119.028C130.093 119.005 126.487 119.274 122.921 119.833C120.021 120.265 117.195 121.094 114.521 122.296C112.386 123.247 110.51 124.695 109.05 126.519C107.753 128.225 107.072 130.32 107.116 132.462C107.058 134.517 107.604 136.543 108.687 138.29C109.679 139.829 110.922 141.19 112.363 142.317C114.778 140.907 117.368 139.824 120.067 139.096C123.457 138.138 126.965 137.666 130.487 137.692L130.51 137.669Z" fill="white"></path></g><defs><clipPath id="clip0_255_567"><rect width="487" height="537" fill="white" transform="translate(0.459961)"></rect></clipPath></defs></svg>